<?xml version="1.0" encoding="UTF-8" standalone="no"?>
<svg
   xmlns="http://www.w3.org/2000/svg"
   width="108.76006mm"
   height="100.3026mm"
   viewBox="0 0 108.76006 100.3026"
   version="1.1"
   id="svg8"
   style="fill:#ffd700;fill-opacity:1;stroke-width:0.264583">
  <defs
     id="defs2" />
  <g
     id="layer1"
     transform="translate(-89.835236,-22.696156)">
    <path

       d="m 144.59077,121.86155 c -0.16725,-0.6255 -0.42609,-1.2861 -0.5752,-1.468 -0.4807,-0.58641 -1.40319,-0.35369 -2.31108,0.58302 l -0.88565,0.91376 -1.21677,-0.69626 c -0.66923,-0.38294 -1.24676,-0.71497 -1.2834,-0.73784 -0.0366,-0.0229 0.1008,-0.59787 0.30542,-1.27778 0.33947,-1.12795 0.33026,-1.28778 -0.1051,-1.82543 -0.44985,-0.55554 -0.54852,-0.57016 -1.72493,-0.25551 -1.45305,0.38863 -1.68628,0.26487 -2.3737,-1.25957 l -0.4748,-1.05292 0.96868,-1.07222 c 1.20402,-1.3327 1.00061,-1.9343 -0.83438,-2.46771 l -1.25082,-0.36359 -0.0785,-1.46541 -0.0785,-1.46541 1.34077,-0.32165 c 2.07379,-0.49749 2.2895,-1.39829 0.69256,-2.89202 -0.84448,-0.7899 -0.8447,-0.8452 -0.009,-2.27083 l 0.67653,-1.1544 1.21766,0.36646 c 1.98579,0.59764 2.61322,-0.009 2.03352,-1.967364 -0.19046,-0.64331 -0.30203,-1.23862 -0.24792,-1.32292 0.0541,-0.0843 0.63462,-0.44338 1.29004,-0.79796 l 1.19166,-0.64469 1.07967,0.97542 c 0.59382,0.53648 1.16863,0.9736 1.27735,0.97137 0.51219,-0.0105 0.91988,-0.54207 1.23393,-1.60889 l 0.34301,-1.16518 1.59381,-0.078 1.59381,-0.0779 0.18634,1.00399 c 0.19049,1.02631 0.79727,1.93003 1.2959,1.93003 0.15321,0 0.73685,-0.44648 1.29698,-0.99219 l 1.01841,-0.99218 1.2417,0.69604 c 1.30721,0.73276 1.30445,0.72479 0.96386,2.783604 -0.24417,1.47592 0.33898,1.83509 2.11273,1.30127 1.19469,-0.35955 1.23587,-0.35268 1.61377,0.26933 1.25489,2.06548 1.23272,1.80781 0.23844,2.77151 -0.93244,0.90375 -1.16377,1.82646 -0.57824,2.30644 0.1819,0.14911 0.83674,0.4064 1.4552,0.57176 l 1.12448,0.30065 v 1.54786 1.54785 l -0.98731,0.18522 c -2.192,0.41122 -2.51601,1.31186 -1.00043,2.78083 l 0.92268,0.89429 -0.69681,1.20813 c -0.38325,0.66447 -0.73189,1.2507 -0.77475,1.30274 -0.0429,0.052 -0.68267,-0.0604 -1.4218,-0.24982 -1.19145,-0.30536 -1.39368,-0.29462 -1.78298,0.0947 -0.3835,0.3835 -0.39902,0.61283 -0.1225,1.81078 0.17414,0.75442 0.28484,1.39596 0.24599,1.42564 -0.0388,0.0297 -0.61429,0.36752 -1.27876,0.75077 l -1.20813,0.69681 -0.90543,-0.93417 c -1.31416,-1.35587 -2.09643,-1.19659 -2.67203,0.54402 l -0.43748,1.32292 -1.46711,0.0789 -1.46711,0.0789 -0.3041,-1.13728 z m 3.28882,-7.4158 c 2.47669,-0.74001 4.28553,-3.80573 3.63518,-6.16109 -0.675,-2.44465 -2.43993,-3.89872 -4.89262,-4.03088 -1.90963,-0.1029 -3.18517,0.4995 -4.49095,2.12091 -1.61066,1.99999 -1.12151,5.5981 0.97753,7.1906 1.45465,1.10362 3.04298,1.39675 4.77086,0.88046 z m 27.93023,-2.77416 c -0.14991,-0.4053 -0.46672,-1.25427 -0.70402,-1.88661 -0.87118,-2.3214 -3.04334,-3.58074 -5.05388,-2.93004 -0.53623,0.17354 -1.5569,0.60725 -2.26815,0.96378 l -1.29319,0.64825 -1.81567,-1.80175 c -0.99861,-0.99096 -1.81566,-1.94308 -1.81566,-2.11582 0,-0.17274 0.35709,-1.0689 0.79354,-1.99147 0.90375,-1.91037 0.9711,-2.679174 0.36699,-4.189004 -0.50966,-1.27377 -1.26359,-1.84762 -3.4842,-2.65199 l -1.6622,-0.6021 0.0747,-2.76779 0.0747,-2.76778 1.71788,-0.64526 c 2.03835,-0.76564 3.07668,-1.68045 3.49604,-3.08016 0.34222,-1.14223 0.17233,-1.99093 -0.87321,-4.36204 l -0.61602,-1.39704 1.89106,-1.89106 1.89107,-1.89106 1.82394,0.84071 c 3.59664,1.65779 5.68803,0.80127 6.99336,-2.86411 l 0.61222,-1.71914 2.77992,-0.0745 2.77992,-0.0745 0.62837,1.84573 c 1.24724,3.66351 3.37115,4.54415 6.9647,2.88778 l 1.82104,-0.83937 1.94405,1.93107 1.94405,1.93108 -0.89972,1.87739 c -0.98088,2.04676 -1.09141,2.91463 -0.53694,4.21593 0.52589,1.2342 1.4076,1.93613 3.34718,2.66466 l 1.714,0.64381 0.0748,2.77427 0.0748,2.77427 -1.74812,0.61714 c -1.21699,0.42963 -2.01895,0.91692 -2.63951,1.6038 -1.47695,1.63481 -1.47127,3.084354 0.0238,6.068924 l 0.60824,1.21423 -1.93009,1.91721 -1.93008,1.9172 -1.55855,-0.77824 c -2.04444,-1.02088 -2.82747,-1.18956 -4.02514,-0.86706 -1.38898,0.37402 -2.55918,1.702 -3.27517,3.71681 l -0.61116,1.71979 -2.71353,0.0754 -2.71353,0.0754 -0.27256,-0.73689 z m 6.00573,-12.727644 c 1.70885,-0.87179 2.65674,-1.81022 3.43478,-3.40048 2.23736,-4.57299 -0.78484,-9.9331 -5.82888,-10.33798 -6.85432,-0.55021 -10.62212,7.57419 -5.71925,12.33226 2.17122,2.10709 5.58105,2.698084 8.11335,1.4062 z m -60.74777,-4.20775 c -1.28309,-3.61561 -1.77932,-4.49502 -3.24369,-5.74847 -1.47588,-1.26329 -3.26066,-1.8155 -5.45622,-1.68815 -1.4895,0.0864 -2.25557,0.33927 -4.9255,1.62586 l -3.16169,1.52356 -3.51905,-3.51181 c -1.935479,-1.9315 -3.519053,-3.62523 -3.519053,-3.76386 0,-0.13862 0.677555,-1.68809 1.505678,-3.44326 1.375715,-2.91576 1.506535,-3.35107 1.515635,-5.04329 0.0114,-2.12354 -0.561994,-3.65561 -1.967116,-5.25596 -1.028709,-1.17163 -2.366432,-1.87763 -5.882346,-3.10448 l -2.579192,-0.89998 v -5.15937 -5.15938 l 2.579192,-0.89998 c 3.515914,-1.22685 4.853637,-1.93285 5.882346,-3.10448 1.405122,-1.60035 1.978526,-3.13242 1.967116,-5.25596 -0.009,-1.69221 -0.13992,-2.12753 -1.515635,-5.04329 -0.828123,-1.75517 -1.505678,-3.30463 -1.505678,-3.44326 0,-0.13862 1.583574,-1.83236 3.519053,-3.76385 l 3.51905,-3.51181 3.16169,1.52355 c 3.70619,1.78595 5.61767,2.08412 8.09203,1.26227 1.8931,-0.62878 3.92556,-2.65442 4.64218,-4.62659 0.28919,-0.79586 0.85536,-2.36974 1.25816,-3.49753 l 0.73236,-2.05052 h 5.09646 5.09647 l 0.99709,2.84427 c 1.33945,3.82086 1.7531,4.57914 3.18605,5.84048 1.61059,1.41769 3.35806,1.98891 5.63454,1.84185 1.46663,-0.0948 2.2972,-0.36847 4.92928,-1.62446 l 3.16545,-1.51051 3.56033,3.56034 3.56034,3.56033 -1.52653,3.34016 c -1.86629,4.08358 -2.08879,5.55425 -1.20191,7.94441 0.41757,1.12535 0.98712,1.97819 1.95641,2.92955 1.22255,1.19993 1.72325,1.46613 4.7277,2.51355 l 3.36034,1.17148 v 5.15938 5.15937 l -3.36034,1.17149 c -3.00445,1.04741 -3.50515,1.31361 -4.7277,2.51354 -0.96929,0.95136 -1.53884,1.8042 -1.95641,2.92955 -0.88688,2.39016 -0.66438,3.86084 1.20191,7.94442 l 1.52653,3.34015 -3.56034,3.56034 -3.56033,3.56033 -3.16545,-1.5105 c -2.63208,-1.25599 -3.46265,-1.52971 -4.92928,-1.62446 -2.20249,-0.14229 -3.97017,0.40451 -5.47685,1.69417 -1.41675,1.21269 -2.1329,2.49271 -3.35026,5.98816 l -0.99057,2.84427 h -5.09578 -5.09578 z m 10.70293,-21.52088 c 4.30774,-1.60606 7.62629,-5.17691 8.72254,-9.38571 2.18446,-8.3867 -3.75396,-16.63235 -12.41522,-17.23888 -3.84352,-0.26914 -7.22496,0.98654 -10.19071,3.78428 -5.80016,5.47157 -5.80016,14.31238 0,19.78395 1.87795,1.77157 3.67573,2.79591 6.07818,3.46323 2.03092,0.56413 5.71605,0.37203 7.80521,-0.40687 z"
       id="path863"/>
  </g>
</svg>
