<?xml version="1.0" encoding="UTF-8" standalone="no"?>
<svg
   xmlns="http://www.w3.org/2000/svg"
   width="119.0625mm"
   height="95.223541mm"
   viewBox="0 0 119.0625 95.223541"
   version="1.1"
   id="svg8"
   fill="#008b8b"
>
  <g
     id="layer1"
     transform="translate(-57.64137,-150.44775)">
    <g
       id="g835"
       transform="matrix(0.26458333,0,0,0.26458333,49.439287,130.31296)">
	<path
            d="M 53.5,233.5 H 76 v 135 H 53.5 c -12.4,0 -22.5,-10 -22.5,-22.4 0,0 0,0 0,-0.1 v -90 c 0,-12.4 10,-22.5 22.5,-22.5 0,0 0,0 0,0 z m 360,-33.7 V 391 c 0,24.8 -20.2,45 -45,45 h -225 c -24.8,0 -45,-20.2 -45,-45 V 199.8 c 0,-31.1 25.2,-56.2 56.2,-56.2 0,0 0,0 0,0 h 78.8 v -45 c 0,-12.4 10.1,-22.5 22.5,-22.5 12.4,0 22.5,10.1 22.5,22.5 v 45 h 78.7 c 31.1,-0.1 56.3,25.1 56.3,56.2 0,-0.1 0,-0.1 0,0 z M 216.6,256 c 0,-15.5 -12.6,-28.1 -28.1,-28.1 -15.5,0 -28.1,12.6 -28.1,28.1 0,15.5 12.6,28.1 28.1,28.1 15.5,0 28.1,-12.6 28.1,-28.1 0,0 0,0 0,0 z m -5.6,90 h -45 v 22.5 h 45 z m 67.5,0 h -45 v 22.5 h 45 z m 73.1,-90 c 0,-15.5 -12.6,-28.1 -28.1,-28.1 -15.5,0 -28.1,12.6 -28.1,28.1 0,15.5 12.6,28.1 28.1,28.1 15.5,0 28.1,-12.6 28.1,-28.1 0,0 0,0 0,0 z m -5.6,90 h -45 v 22.5 h 45 z m 135,-90 v 90 c 0,12.4 -10,22.5 -22.4,22.5 0,0 0,0 -0.1,0 H 436 v -135 h 22.5 c 12.4,0 22.5,10 22.5,22.5 0,0 0,0 0,0 z"
            id="path833" />

</g>
  </g>
</svg>
