<?xml version="1.0" encoding="UTF-8" standalone="no"?>
<svg
   xmlns="http://www.w3.org/2000/svg"
   width="150px"
   height="150px"
   viewBox="0 0 52.916668 52.916668"
   version="1.1"
   id="svg8"
   style="fill:#e6e6e6;">
  <g
     id="layer1"
     transform="translate(6.0190714,-210.56731)">
    <g
       id="g914"
       transform="matrix(0.16257116,0,0,0.18725213,-6.0189906,206.55053)">
      <g
         id="g850">
	<g
   id="Layer_5_45_">
		<g
   id="g847">
			<g
   id="g835">
				<path
   d="m 104.998,289.047 c 0,8.25 -6.75,15 -15,15 h -62 c -8.25,0 -15,-6.75 -15,-15 v -68 c 0,-8.25 6.75,-15 15,-15 h 62 c 8.25,0 15,6.75 15,15 z"
   id="path833" />

			</g>

			<g
   id="g839">
				<path
   d="m 215.248,289.047 c 0,8.25 -6.75,15 -15,15 h -62 c -8.25,0 -15,-6.75 -15,-15 v -104 c 0,-8.25 6.75,-15 15,-15 h 62 c 8.25,0 15,6.75 15,15 z"
   id="path837" />

			</g>

			<g
   id="g843">
				<path
   d="m 325.498,289.047 c 0,8.25 -6.75,15 -15,15 h -62 c -8.25,0 -15,-6.75 -15,-15 v -144 c 0,-8.25 6.75,-15 15,-15 h 62 c 8.25,0 15,6.75 15,15 z"
   id="path841" />

			</g>

			<path
   d="m 312.522,21.731 -67.375,16.392 c -5.346,1.294 -6.537,5.535 -2.648,9.424 l 14.377,14.041 c 1.207,1.376 -0.225,3.206 -1.361,3.981 -9.053,6.18 -23.42,15.248 -43.279,25.609 -108.115,56.407 -197.238,52.947 -198.578,52.886 -7.154,-0.363 -13.271,5.148 -13.641,12.314 -0.369,7.17 5.143,13.283 12.313,13.652 0.527,0.027 2.67,0.124 6.273,0.124 23.107,0 106.111,-3.987 205.66,-55.924 23.555,-12.289 39.881,-22.888 49.414,-29.598 1.348,-0.949 3.697,-2.585 5.865,-0.378 l 15.725,15.724 c 3.889,3.889 8.109,2.692 9.381,-2.659 l 15.285,-68.211 c 1.27,-5.352 -2.066,-8.671 -7.411,-7.377 z"
   id="path845" />

		</g>

	</g>

</g>
      <g
         id="g852">
</g>
      <g
         id="g854">
</g>
      <g
         id="g856">
</g>
      <g
         id="g858">
</g>
      <g
         id="g860">
</g>
      <g
         id="g862">
</g>
      <g
         id="g864">
</g>
      <g
         id="g866">
</g>
      <g
         id="g868">
</g>
      <g
         id="g870">
</g>
      <g
         id="g872">
</g>
      <g
         id="g874">
</g>
      <g
         id="g876">
</g>
      <g
         id="g878">
</g>
      <g
         id="g880">
</g>
    </g>
  </g>
</svg>
