<?xml version="1.0" encoding="UTF-8" standalone="no"?>
<svg
   xmlns="http://www.w3.org/2000/svg"
   viewBox="0 0 108.03334 95.756416"
   version="1.1"
   fill="#f5f5f5">
  <g
     transform="translate(-40.104862,-107.19817)">
    <g
       transform="matrix(0.26458333,0,0,0.26458333,-32.101211,-58.442246)">
      <path
         d="m 378.01308,955.70728 c -20.6849,-5.4171 -38.09056,-19.2071 -46.98131,-37.2221 -5.2279,-10.5931 -7.09752,-18.8045 -7.11588,-31.253 -0.0532,-36.0714 27.11304,-65.2308 64.90274,-69.6646 l 9.74764,-1.1436 1.2704,-7.5606 c 3.6244,-21.57 13.82229,-40.405 29.89991,-55.2237 22.99415,-21.1937 59.37833,-29.9666 96.7356,-23.3249 25.94587,4.6128 49.43422,19.3583 63.34109,39.7642 7.32749,10.7518 16.08784,34.503 16.08784,43.6177 0,2.6548 0.12025,2.7022 9.75,3.8388 26.9411,3.1798 48.4057,17.9206 59.12212,40.602 4.65635,9.8551 6.43036,17.8672 6.44649,29.1148 0.0174,12.1225 -1.83646,19.9381 -7.47173,31.5 -3.37045,6.9151 -5.83998,10.2003 -13.24489,17.6194 -7.8094,7.8244 -10.4511,9.7651 -18.60199,13.6657 -17.03131,8.1503 -9.18987,7.7218 -140.19741,7.6598 -111.68699,-0.053 -116.59579,-0.1318 -123.69062,-1.9899 z m -98.08196,-136.2343 c -3.44338,-1.7424 -7.03073,-7.4191 -7.02627,-11.1186 0.004,-3.6259 3.01877,-9.0086 5.91217,-10.5571 4.69511,-2.5128 24.50296,-9.0447 27.4172,-9.0413 8.93972,0.011 15.28519,10.0324 11.26927,17.7983 -2.32836,4.5026 -4.60928,5.8626 -16.96354,10.1152 -12.48684,4.2981 -16.55994,4.8522 -20.60883,2.8035 z m 57.66883,-16.9707 c -5.86449,-12.0124 -7.85205,-19.8643 -8.43329,-33.3157 -0.39348,-9.106 -0.10283,-14.1347 1.18483,-20.5 6.44182,-31.8439 30.08128,-56.60863 62.04962,-65.00327 11.13931,-2.9251 28.86069,-2.9251 40,0 13.13482,3.4491 30.49142,12.81654 36.84744,19.88674 1.82665,2.0319 1.80416,2.06291 -2,2.75675 -12.41325,2.26405 -32.12555,11.38968 -44.31095,20.51328 -20.10983,15.057 -34.29867,35.1953 -42.07008,59.7104 l -3.14493,9.9207 -8.55694,2.1125 c -4.70632,1.1619 -12.74553,4.1501 -17.86491,6.6405 -5.11938,2.4904 -9.49997,4.5281 -9.73465,4.5281 -0.23467,0 -2.01944,-3.2625 -3.96614,-7.25 z m -29.69884,-74.6814 c -1.375,-0.429 -7.54952,-3.3172 -13.72116,-6.4182 -12.15991,-6.1099 -14.27884,-8.35816 -14.27884,-15.15043 0,-7.34765 5.07555,-12.5 12.31369,-12.5 4.54547,0 26.66287,10.88344 29.53333,14.53265 2.44711,3.111 2.87223,9.51048 0.88824,13.37098 -2.51754,4.8987 -9.47058,7.8077 -14.73526,6.165 z m 147.29855,-52.9696 c -3.7357,-2.3461 -6.29855,-6.78644 -6.29855,-10.91272 0,-4.04615 11.1663,-26.38536 14.49923,-29.00705 1.48702,-1.16968 4.22457,-2.41202 6.08346,-2.76075 7.2116,-1.35291 15.11197,6.20519 14.02083,13.41339 -0.72876,4.81431 -10.85903,25.24817 -13.89807,28.03392 -3.61103,3.31008 -10.20162,3.87422 -14.4069,1.23321 z m -85.98473,-5.04926 c -1.7524,-1.06851 -3.65505,-2.81885 -4.22813,-3.88965 -2.43145,-4.54322 -9.08538,-24.74842 -9.08195,-27.5781 0.009,-7.22073 7.56886,-13.44759 14.70214,-12.10938 6.04004,1.13312 8.83127,4.90017 13.25463,17.88852 4.58416,13.46046 4.9995,18.14866 1.95119,22.02396 -4.40832,5.60427 -11.022,7.06451 -16.59788,3.66465 z"/>
    </g>
  </g>
</svg>
