<?xml version="1.0" encoding="UTF-8" standalone="no"?>
<svg
   xmlns="http://www.w3.org/2000/svg"
   width="74.873886mm"
   height="75.141663mm"
   viewBox="0 0 74.873886 75.141663"
   version="1.1"
   fill="#ffd700"
   id="svg8">
  <g
     id="layer1"
     transform="translate(-24.239023,10.085819)">
    <path
       style="fill-opacity:1;stroke-width:0.264583"
       d="m 55.471567,61.954221 c -1.28309,-3.61561 -1.77932,-4.49502 -3.24369,-5.74847 -1.47588,-1.26329 -3.26066,-1.8155 -5.45622,-1.68815 -1.4895,0.0864 -2.25557,0.33927 -4.9255,1.62586 l -3.16169,1.52356 -3.51905,-3.51181 c -1.935479,-1.9315 -3.519053,-3.62523 -3.519053,-3.76386 0,-0.13862 0.677555,-1.68809 1.505678,-3.44326 1.375715,-2.91576 1.506535,-3.35107 1.515635,-5.04329 0.0114,-2.12354 -0.561994,-3.65561 -1.967116,-5.25596 -1.028709,-1.17163 -2.366432,-1.87763 -5.882346,-3.10448 l -2.579192,-0.89998 v -5.15937 -5.15938 l 2.579192,-0.89998 c 3.515914,-1.22685 4.853637,-1.93285 5.882346,-3.10448 1.405122,-1.60035 1.978526,-3.13242 1.967116,-5.25596 -0.009,-1.69221 -0.13992,-2.12753 -1.515635,-5.0432898 -0.828123,-1.75517 -1.505678,-3.30463 -1.505678,-3.44326 0,-0.13862 1.583574,-1.83236 3.519053,-3.76385001 l 3.51905,-3.51180999 3.16169,1.52355 c 3.70619,1.78594999 5.61767,2.08411999 8.09203,1.26226999 1.8931,-0.62878 3.92556,-2.65441999 4.64218,-4.62658999 0.28919,-0.79586 0.85536,-2.36974 1.25816,-3.49753 l 0.73236,-2.0505202 h 5.09646 5.09647 l 0.99709,2.8442702 c 1.33945,3.82086 1.7531,4.57914 3.18605,5.84048 1.61059,1.41768999 3.35806,1.98890999 5.63454,1.84184999 1.46663,-0.0948 2.2972,-0.36847 4.92928,-1.62445999 l 3.16545,-1.51051 3.56033,3.56033999 3.56034,3.56033001 -1.52653,3.34016 c -1.86629,4.0835798 -2.08879,5.5542498 -1.20191,7.9444098 0.41757,1.12535 0.98712,1.97819 1.95641,2.92955 1.22255,1.19993 1.72325,1.46613 4.7277,2.51355 l 3.36034,1.17148 v 5.15938 5.15937 l -3.36034,1.17149 c -3.00445,1.04741 -3.50515,1.31361 -4.7277,2.51354 -0.96929,0.95136 -1.53884,1.8042 -1.95641,2.92955 -0.88688,2.39016 -0.66438,3.86084 1.20191,7.94442 l 1.52653,3.34015 -3.56034,3.56034 -3.56033,3.56033 -3.16545,-1.5105 c -2.63208,-1.25599 -3.46265,-1.52971 -4.92928,-1.62446 -2.20249,-0.14229 -3.97017,0.40451 -5.47685,1.69417 -1.41675,1.21269 -2.1329,2.49271 -3.35026,5.98816 l -0.99057,2.84427 h -5.09578 -5.09578 z m 10.70293,-21.52088 c 4.30774,-1.60606 7.62629,-5.17691 8.72254,-9.38571 2.18446,-8.3867 -3.75396,-16.63235 -12.41522,-17.23888 -3.84352,-0.26914 -7.22496,0.98654 -10.19071,3.78428 -5.80016,5.47157 -5.80016,14.31238 0,19.78395 1.87795,1.77157 3.67573,2.79591 6.07818,3.46323 2.03092,0.56413 5.71605,0.37203 7.80521,-0.40687 z"
       id="path863"
       />
  </g>
</svg>
